<?xml version="1.0" standalone="no"?><!DOCTYPE svg PUBLIC "-//W3C//DTD SVG 1.1//EN" "http://www.w3.org/Graphics/SVG/1.1/DTD/svg11.dtd"><svg t="1730101166045" class="icon" viewBox="0 0 1024 1024" version="1.1" xmlns="http://www.w3.org/2000/svg" p-id="11880" xmlns:xlink="http://www.w3.org/1999/xlink" width="200" height="200"><path d="M0 0m128 0l768 0q128 0 128 128l0 768q0 128-128 128l-768 0q-128 0-128-128l0-768q0-128 128-128Z" fill="#3FCFEC" p-id="11881"></path><path d="M875.2 257.6q-160 9.28-423.04 14.72c-4.48 43.2-7.04 82.88-7.68 119.36a615.68 615.68 0 0 1 140.8-14.72c21.44 0 37.44 0 48 1.6 2.56-10.88 7.04-28.16 13.44-51.52l64 13.76c-6.08 22.08-10.56 38.72-13.12 49.92a325.76 325.76 0 0 1 96 44.16 212.48 212.48 0 0 1 102.4 184.96 233.92 233.92 0 0 1-85.12 192Q732.8 874.88 576 896l-23.68-57.28a422.72 422.72 0 0 0 203.2-69.12 181.76 181.76 0 0 0 72.64-149.76A155.84 155.84 0 0 0 745.92 480a267.2 267.2 0 0 0-66.24-28.48A983.68 983.68 0 0 1 576 672q-125.12 186.24-301.12 186.56a139.2 139.2 0 0 1-107.84-42.56A156.48 156.48 0 0 1 128 702.08q0-129.6 128-224a448 448 0 0 1 119.68-65.6c0-47.36 4.16-93.44 8.64-138.56H143.36V212.16h248.64c4.16-35.84 10.56-74.24 18.88-115.52l66.88 14.72c-6.08 32-11.84 64-16.96 99.84q251.52-3.84 411.84-13.76z m-260.8 181.12h-29.12a528 528 0 0 0-142.72 17.6v12.8a1339.52 1339.52 0 0 0 18.88 241.28 598.4 598.4 0 0 0 56.64-70.4 890.56 890.56 0 0 0 96.32-201.28zM374.4 480a320 320 0 0 0-72.64 43.52Q195.2 601.92 195.2 702.08c0 64 26.24 94.08 79.36 94.08a236.16 236.16 0 0 0 128-37.76 1293.12 1293.12 0 0 1-28.16-278.4z" fill="#FFFFFF" p-id="11882"></path></svg>